<svg width="658" height="147" viewBox="0 0 658 147" fill="none" xmlns="http://www.w3.org/2000/svg">
<path d="M205.467 23.1727C203.054 14.177 195.944 7.09139 186.915 4.68713C170.549 0.317657 104.926 0.317653 104.926 0.317653C104.926 0.317653 39.3036 0.317657 22.9379 4.68713C13.9096 7.09139 6.79826 14.177 4.38529 23.1727C0 39.4792 0 73.5 0 73.5C0 73.5 0 107.522 4.38529 123.828C6.79826 132.823 13.9096 139.909 22.9379 142.313C39.3036 146.684 104.926 146.684 104.926 146.684C104.926 146.684 170.549 146.684 186.915 142.313C195.944 139.909 203.054 132.823 205.467 123.828C209.853 107.522 209.853 73.5 209.853 73.5C209.853 73.5 209.853 39.4792 205.467 23.1727Z" fill="#ED1D24"/>
<path d="M83.9408 104.865L138.46 73.5008L83.9408 42.1362V104.865Z" fill="white"/>
<path d="M327.862 119.117C329.01 116.128 329.587 111.244 329.587 104.465V75.9038C329.587 69.325 329.01 64.5165 327.862 61.4751C326.711 58.4354 324.685 56.914 321.785 56.914C318.983 56.914 317.005 58.4354 315.856 61.4751C314.706 64.5165 314.131 69.325 314.131 75.9038V104.465C314.131 111.244 314.68 116.128 315.782 119.117C316.881 122.108 318.881 123.602 321.785 123.602C324.685 123.602 326.711 122.108 327.862 119.117ZM304.602 133.472C300.448 130.684 297.496 126.346 295.748 120.462C293.996 114.583 293.122 106.757 293.122 96.9878V83.6797C293.122 73.8114 294.12 65.8855 296.122 59.905C298.123 53.9241 301.248 49.5641 305.502 46.8218C309.753 44.0814 315.331 42.7098 322.235 42.7098C329.038 42.7098 334.49 44.1063 338.592 46.8963C342.693 49.6871 345.695 54.0499 347.597 59.9797C349.496 65.9117 350.447 73.8114 350.447 83.6797V96.9878C350.447 106.757 349.521 114.609 347.671 120.539C345.82 126.47 342.817 130.807 338.666 133.547C334.514 136.288 328.888 137.659 321.785 137.659C314.479 137.659 308.751 136.262 304.602 133.472Z" fill="#252323"/>
<path d="M625.967 58.6279C624.919 59.9241 624.216 62.0425 623.867 64.982C623.514 67.9233 623.343 72.3835 623.343 78.3644V84.9438H638.498V78.3644C638.498 72.4843 638.297 68.0234 637.898 64.982C637.498 61.9423 636.774 59.8003 635.723 58.5532C634.672 57.3067 633.046 56.6835 630.845 56.6835C628.643 56.6835 627.017 57.3329 625.967 58.6279ZM623.343 97.2056V101.841C623.343 107.724 623.514 112.135 623.867 115.074C624.216 118.015 624.939 120.159 626.043 121.505C627.143 122.849 628.842 123.524 631.146 123.524C634.245 123.524 636.373 122.327 637.523 119.934C638.672 117.541 639.297 113.555 639.398 107.971L657.257 109.018C657.357 109.818 657.408 110.914 657.408 112.307C657.408 120.782 655.082 127.113 650.429 131.299C645.779 135.484 639.197 137.579 630.695 137.579C620.491 137.579 613.336 134.39 609.236 128.008C605.131 121.631 603.081 111.762 603.081 98.4023V82.4019C603.081 68.6455 605.207 58.6043 609.46 52.2717C613.711 45.9424 620.991 42.7772 631.296 42.7772C638.398 42.7772 643.851 44.0734 647.653 46.6646C651.453 49.2583 654.131 53.2956 655.682 58.7764C657.233 64.2598 658.009 71.837 658.009 81.505V97.2056H623.343Z" fill="#252323"/>
<path d="M254.173 95.4893L230.611 10.706H251.17L259.424 49.1352C261.526 58.6075 263.076 66.6816 264.076 73.3584H264.677C265.376 68.5742 266.928 60.5505 269.329 49.2851L277.883 10.706H298.442L274.582 95.4893V136.163H254.173V95.4893Z" fill="#252323"/>
<path d="M417.315 44.5029V136.163H401.107L399.305 124.949H398.856C394.453 133.422 387.849 137.657 379.046 137.657C372.943 137.657 368.442 135.666 365.54 131.677C362.638 127.692 361.188 121.46 361.188 112.986V44.5029H381.898V111.79C381.898 115.879 382.349 118.794 383.249 120.537C384.149 122.283 385.65 123.154 387.75 123.154C389.552 123.154 391.278 122.607 392.927 121.508C394.579 120.412 395.804 119.019 396.605 117.324V44.5029H417.315Z" fill="#252323"/>
<path d="M523.543 44.5029V136.163H507.335L505.533 124.949H505.086C500.679 133.422 494.077 137.657 485.274 137.657C479.171 137.657 474.67 135.666 471.768 131.677C468.866 127.692 467.416 121.46 467.416 112.986V44.5029H488.126V111.79C488.126 115.879 488.575 118.794 489.475 120.537C490.377 122.283 491.878 123.154 493.978 123.154C495.78 123.154 497.506 122.607 499.155 121.508C500.807 120.412 502.032 119.019 502.833 117.324V44.5029H523.543Z" fill="#252323"/>
<path d="M473.59 27.307H453.031V136.163H432.772V27.307H412.212V10.7088H473.59V27.307Z" fill="#252323"/>
<path d="M573.102 96.5433C573.102 103.223 572.824 108.457 572.274 112.243C571.725 116.034 570.799 118.725 569.499 120.318C568.198 121.913 566.444 122.71 564.247 122.71C562.544 122.71 560.969 122.313 559.519 121.513C558.067 120.717 556.894 119.521 555.992 117.924V65.8894C556.692 63.3991 557.892 61.3545 559.594 59.7592C561.295 58.1664 563.143 57.367 565.145 57.367C567.248 57.367 568.871 58.19 570.024 59.8337C571.172 61.4783 571.974 64.2448 572.425 68.1336C572.876 72.0203 573.102 77.5529 573.102 84.7299V96.5433ZM592.084 59.1547C590.832 53.3748 588.806 49.1883 586.005 46.5945C583.204 44.0047 579.352 42.7078 574.451 42.7078C570.649 42.7078 567.097 43.7801 563.796 45.922C560.495 48.0661 557.942 50.8825 556.142 54.3711H555.99L555.992 6.07291H536.034V136.161H553.14L555.242 127.49H555.691C557.291 130.58 559.692 133.022 562.895 134.817C566.096 136.61 569.649 137.508 573.551 137.508C580.552 137.508 585.705 134.292 589.008 127.863C592.309 121.433 593.96 111.391 593.96 97.7333V83.2292C593.96 72.9629 593.333 64.9381 592.084 59.1547Z" fill="#252323"/>
</svg>
