<svg width="24" height="24" viewBox="0 0 24 24" fill="none" xmlns="http://www.w3.org/2000/svg">
<path fill-rule="evenodd" clip-rule="evenodd" d="M12 20.5C16.694 20.5 20.5 16.694 20.5 12C20.5 7.306 16.694 3.5 12 3.5C7.306 3.5 3.5 7.306 3.5 12C3.5 16.694 7.306 20.5 12 20.5ZM12 22C17.523 22 22 17.523 22 12C22 6.477 17.523 2 12 2C6.477 2 2 6.477 2 12C2 17.523 6.477 22 12 22ZM12 17C14.761 17 17 14.761 17 12C17 9.239 14.761 7 12 7C9.239 7 7 9.239 7 12C7 14.761 9.239 17 12 17ZM12 18C15.314 18 18 15.314 18 12C18 8.686 15.314 6 12 6C8.686 6 6 8.686 6 12C6 15.314 8.686 18 12 18ZM10.757 9.454C10.424 9.254 10 9.494 10 9.884V14.117C10 14.506 10.424 14.746 10.757 14.546L15 12L10.757 9.454Z" fill="#030303"/>
</svg>
