<svg width="16" height="16" viewBox="0 0 16 16" fill="none" xmlns="http://www.w3.org/2000/svg">
<g clip-path="url(#clip0_241_34)">
<mask id="mask0_241_34" style="mask-type:luminance" maskUnits="userSpaceOnUse" x="0" y="0" width="16" height="16">
<path d="M0 0H16V16H0V0Z" fill="white"/>
</mask>
<g mask="url(#mask0_241_34)">
<path d="M15.6667 4.338C15.5756 4.015 15.3992 3.72252 15.156 3.49133C14.9055 3.25333 14.5985 3.08309 14.264 2.99666C13.012 2.66666 7.996 2.66666 7.996 2.66666C5.9049 2.6435 3.81434 2.74814 1.736 2.98C1.40146 3.0728 1.09504 3.24685 0.844 3.48666C0.597334 3.724 0.418667 4.01666 0.325334 4.33733C0.100769 5.54511 -0.00816835 6.77154 1.5178e-07 8C-0.00799985 9.22733 0.100667 10.4533 0.325334 11.6627C0.416667 11.982 0.594667 12.2733 0.842 12.5087C1.08933 12.744 1.39733 12.914 1.736 13.004C3.00467 13.3333 7.996 13.3333 7.996 13.3333C10.0898 13.3568 12.183 13.2522 14.264 13.02C14.5985 12.9336 14.9055 12.7633 15.156 12.5253C15.399 12.2941 15.5752 12.0016 15.666 11.6787C15.896 10.4713 16.0078 9.24439 16 8.01533C16.0172 6.78107 15.9055 5.54905 15.6667 4.338ZM6.40133 10.2827V5.718L10.5747 8.00066L6.40133 10.2827Z" fill="#202124"/>
</g>
</g>
<defs>
<clipPath id="clip0_241_34">
<rect width="16" height="16" fill="white"/>
</clipPath>
</defs>
</svg>
