<svg width="164" height="24" viewBox="0 0 164 24" fill="none" xmlns="http://www.w3.org/2000/svg">
<g clip-path="url(#clip0_209_52)">
<path d="M9.58131 8.56364V11.1273H15.7681C15.6039 12.5455 15.1111 13.6364 14.3446 14.3455C13.4686 15.2182 12.0451 16.2 9.58131 16.2C5.80354 16.2 2.84702 13.1455 2.84702 9.38182C2.84702 5.61818 5.74879 2.56364 9.58131 2.56364C11.6071 2.56364 13.1401 3.38182 14.2351 4.41818L16.0419 2.61818C14.5088 1.14545 12.4283 0 9.58131 0C4.38003 0 0 4.2 0 9.38182C0 14.5636 4.38003 18.7636 9.58131 18.7636C12.3736 18.7636 14.5088 17.8364 16.1514 16.1455C17.8486 14.4545 18.3961 12.0545 18.3961 10.1455C18.3961 9.54546 18.3414 9 18.2866 8.56364H9.58131Z" fill="white"/>
<path d="M26.0612 6.43636C22.7214 6.43636 19.9291 9 19.9291 12.4909C19.9291 15.9818 22.6666 18.5455 26.0612 18.5455C29.4557 18.5455 32.1932 16.0364 32.1932 12.5455C32.1932 9 29.4557 6.43636 26.0612 6.43636ZM26.0612 16.2C24.1997 16.2 22.6119 14.6727 22.6119 12.5455C22.6119 10.3636 24.1997 8.89091 26.0612 8.89091C27.9227 8.89091 29.5104 10.3636 29.5104 12.5455C29.5104 14.6727 27.9227 16.2 26.0612 16.2Z" fill="white"/>
<path d="M56.0096 7.8H55.9001C55.2979 7.09091 54.1481 6.43636 52.6698 6.43636C49.6038 6.43636 46.9758 9.05454 46.9758 12.4909C46.9758 15.8727 49.6038 18.5455 52.6698 18.5455C54.1481 18.5455 55.2979 17.8909 55.9001 17.1818H56.0096V18.0545C56.0096 20.3455 54.7504 21.6 52.7793 21.6C51.1368 21.6 50.1513 20.4545 49.7133 19.4182L47.4138 20.4C48.0708 21.9818 49.8776 24 52.8341 24C55.9549 24 58.6376 22.1455 58.6376 17.6727V6.76364H56.1191V7.8H56.0096ZM52.9436 16.2C51.0821 16.2 49.7133 14.6182 49.7133 12.5455C49.7133 10.4182 51.1368 8.89091 52.9436 8.89091C54.7504 8.89091 56.1739 10.4727 56.1739 12.6C56.2286 14.6727 54.8051 16.2 52.9436 16.2Z" fill="white"/>
<path d="M39.694 6.43636C36.3542 6.43636 33.562 9 33.562 12.4909C33.562 15.9818 36.2995 18.5455 39.694 18.5455C43.0885 18.5455 45.826 16.0364 45.826 12.5455C45.826 9 43.0885 6.43636 39.694 6.43636ZM39.694 16.2C37.8325 16.2 36.2447 14.6727 36.2447 12.5455C36.2447 10.3636 37.8325 8.89091 39.694 8.89091C41.5555 8.89091 43.1433 10.3636 43.1433 12.5455C43.1433 14.6727 41.5555 16.2 39.694 16.2Z" fill="white"/>
<path d="M60.6634 0.272728H63.2914V18.6H60.6634V0.272728Z" fill="white"/>
<path d="M71.3945 16.2C70.0257 16.2 69.0949 15.6 68.4379 14.3455L76.5957 11.0182L76.322 10.3091C75.8292 8.94545 74.2415 6.43636 71.1207 6.43636C67.9999 6.43636 65.3719 8.89091 65.3719 12.4909C65.3719 15.8727 67.9452 18.5455 71.3945 18.5455C74.1867 18.5455 75.7745 16.8545 76.4862 15.8727L74.4057 14.5091C73.694 15.5455 72.7632 16.2 71.3945 16.2ZM71.2302 8.72727C72.3252 8.72727 73.256 9.27273 73.5297 10.0364L68.0547 12.3273C67.9999 9.81818 69.8615 8.72727 71.2302 8.72727Z" fill="white"/>
</g>
<path d="M86.544 18H83.8721L83.8897 16.6201H86.544C87.4581 16.6201 88.2198 16.4297 88.8291 16.0488C89.4385 15.6621 89.8956 15.123 90.2002 14.4316C90.5108 13.7344 90.6661 12.9199 90.6661 11.9883V11.2061C90.6661 10.4736 90.5782 9.82324 90.4024 9.25488C90.2266 8.68066 89.9688 8.19727 89.629 7.80469C89.2891 7.40625 88.8731 7.10449 88.3809 6.89941C87.8946 6.69434 87.335 6.5918 86.7022 6.5918H83.8194V5.20312H86.7022C87.5401 5.20312 88.3047 5.34375 88.9961 5.625C89.6875 5.90039 90.2823 6.30176 90.7803 6.8291C91.2842 7.35059 91.6709 7.9834 91.9405 8.72754C92.21 9.46582 92.3448 10.2979 92.3448 11.2236V11.9883C92.3448 12.9141 92.21 13.749 91.9405 14.4932C91.6709 15.2314 91.2813 15.8613 90.7715 16.3828C90.2676 16.9043 89.6582 17.3057 88.9434 17.5869C88.2344 17.8623 87.4346 18 86.544 18ZM84.7774 5.20312V18H83.0811V5.20312H84.7774ZM98.6938 18.1758C98.0317 18.1758 97.4311 18.0645 96.892 17.8418C96.3588 17.6133 95.8989 17.2939 95.5122 16.8838C95.1313 16.4736 94.8383 15.9873 94.6332 15.4248C94.4282 14.8623 94.3256 14.2471 94.3256 13.5791V13.21C94.3256 12.4365 94.4399 11.748 94.6684 11.1445C94.8969 10.5352 95.2075 10.0195 95.6 9.59766C95.9926 9.17578 96.4379 8.85645 96.936 8.63965C97.434 8.42285 97.9497 8.31445 98.4829 8.31445C99.1625 8.31445 99.7485 8.43164 100.241 8.66602C100.739 8.90039 101.146 9.22852 101.462 9.65039C101.779 10.0664 102.013 10.5586 102.165 11.127C102.318 11.6895 102.394 12.3047 102.394 12.9727V13.7021H95.2924V12.375H100.768V12.252C100.745 11.8301 100.657 11.4199 100.504 11.0215C100.358 10.623 100.123 10.2949 99.8012 10.0371C99.479 9.7793 99.0395 9.65039 98.4829 9.65039C98.1137 9.65039 97.7739 9.72949 97.4633 9.8877C97.1528 10.04 96.8862 10.2686 96.6635 10.5732C96.4409 10.8779 96.268 11.25 96.145 11.6895C96.0219 12.1289 95.9604 12.6357 95.9604 13.21V13.5791C95.9604 14.0303 96.0219 14.4551 96.145 14.8535C96.2739 15.2461 96.4584 15.5918 96.6987 15.8906C96.9448 16.1895 97.2407 16.4238 97.5864 16.5938C97.9379 16.7637 98.3364 16.8486 98.7817 16.8486C99.3559 16.8486 99.8422 16.7314 100.241 16.4971C100.639 16.2627 100.988 15.9492 101.287 15.5566L102.271 16.3389C102.066 16.6494 101.805 16.9453 101.489 17.2266C101.172 17.5078 100.783 17.7363 100.32 17.9121C99.8627 18.0879 99.3207 18.1758 98.6938 18.1758ZM108.339 18.1758C107.677 18.1758 107.076 18.0645 106.537 17.8418C106.004 17.6133 105.544 17.2939 105.157 16.8838C104.776 16.4736 104.483 15.9873 104.278 15.4248C104.073 14.8623 103.971 14.2471 103.971 13.5791V13.21C103.971 12.4365 104.085 11.748 104.313 11.1445C104.542 10.5352 104.852 10.0195 105.245 9.59766C105.638 9.17578 106.083 8.85645 106.581 8.63965C107.079 8.42285 107.595 8.31445 108.128 8.31445C108.807 8.31445 109.393 8.43164 109.886 8.66602C110.384 8.90039 110.791 9.22852 111.107 9.65039C111.424 10.0664 111.658 10.5586 111.81 11.127C111.963 11.6895 112.039 12.3047 112.039 12.9727V13.7021H104.937V12.375H110.413V12.252C110.389 11.8301 110.302 11.4199 110.149 11.0215C110.003 10.623 109.768 10.2949 109.446 10.0371C109.124 9.7793 108.684 9.65039 108.128 9.65039C107.759 9.65039 107.419 9.72949 107.108 9.8877C106.798 10.04 106.531 10.2686 106.308 10.5732C106.086 10.8779 105.913 11.25 105.79 11.6895C105.667 12.1289 105.605 12.6357 105.605 13.21V13.5791C105.605 14.0303 105.667 14.4551 105.79 14.8535C105.919 15.2461 106.103 15.5918 106.344 15.8906C106.59 16.1895 106.886 16.4238 107.231 16.5938C107.583 16.7637 107.981 16.8486 108.427 16.8486C109.001 16.8486 109.487 16.7314 109.886 16.4971C110.284 16.2627 110.633 15.9492 110.931 15.5566L111.916 16.3389C111.711 16.6494 111.45 16.9453 111.134 17.2266C110.817 17.5078 110.428 17.7363 109.965 17.9121C109.508 18.0879 108.966 18.1758 108.339 18.1758ZM115.663 10.3184V21.6562H114.029V8.49023H115.523L115.663 10.3184ZM122.071 13.166V13.3506C122.071 14.042 121.989 14.6836 121.824 15.2754C121.66 15.8613 121.42 16.3711 121.104 16.8047C120.793 17.2383 120.409 17.5752 119.952 17.8154C119.495 18.0557 118.971 18.1758 118.379 18.1758C117.776 18.1758 117.242 18.0762 116.78 17.877C116.317 17.6777 115.924 17.3877 115.602 17.0068C115.28 16.626 115.022 16.1689 114.828 15.6357C114.641 15.1025 114.512 14.502 114.442 13.834V12.8496C114.512 12.1465 114.644 11.5166 114.837 10.96C115.031 10.4033 115.285 9.92871 115.602 9.53613C115.924 9.1377 116.314 8.83594 116.771 8.63086C117.228 8.41992 117.755 8.31445 118.353 8.31445C118.95 8.31445 119.481 8.43164 119.944 8.66602C120.406 8.89453 120.796 9.22266 121.113 9.65039C121.429 10.0781 121.666 10.5908 121.824 11.1885C121.989 11.7803 122.071 12.4395 122.071 13.166ZM120.436 13.3506V13.166C120.436 12.6914 120.386 12.2461 120.286 11.8301C120.187 11.4082 120.031 11.0391 119.821 10.7227C119.615 10.4004 119.352 10.1484 119.03 9.9668C118.707 9.7793 118.323 9.68555 117.878 9.68555C117.468 9.68555 117.111 9.75586 116.806 9.89648C116.507 10.0371 116.252 10.2275 116.041 10.4678C115.83 10.7021 115.657 10.9717 115.523 11.2764C115.394 11.5752 115.297 11.8857 115.233 12.208V14.4844C115.35 14.8945 115.514 15.2812 115.725 15.6445C115.936 16.002 116.217 16.292 116.569 16.5146C116.92 16.7314 117.363 16.8398 117.896 16.8398C118.335 16.8398 118.713 16.749 119.03 16.5674C119.352 16.3799 119.615 16.125 119.821 15.8027C120.031 15.4805 120.187 15.1113 120.286 14.6953C120.386 14.2734 120.436 13.8252 120.436 13.3506ZM125.027 5.20312H126.671L130.863 15.6357L135.047 5.20312H136.699L131.496 18H130.213L125.027 5.20312ZM124.491 5.20312H125.941L126.178 13.0078V18H124.491V5.20312ZM135.776 5.20312H137.226V18H135.539V13.0078L135.776 5.20312ZM141.826 8.49023V18H140.191V8.49023H141.826ZM140.068 5.96777C140.068 5.7041 140.148 5.48145 140.306 5.2998C140.47 5.11816 140.71 5.02734 141.026 5.02734C141.337 5.02734 141.574 5.11816 141.738 5.2998C141.908 5.48145 141.993 5.7041 141.993 5.96777C141.993 6.21973 141.908 6.43652 141.738 6.61816C141.574 6.79395 141.337 6.88184 141.026 6.88184C140.71 6.88184 140.47 6.79395 140.306 6.61816C140.148 6.43652 140.068 6.21973 140.068 5.96777ZM146.163 10.5205V18H144.537V8.49023H146.075L146.163 10.5205ZM145.776 12.8848L145.099 12.8584C145.105 12.208 145.202 11.6074 145.389 11.0566C145.577 10.5 145.84 10.0166 146.18 9.60645C146.52 9.19629 146.924 8.87988 147.393 8.65723C147.868 8.42871 148.392 8.31445 148.966 8.31445C149.435 8.31445 149.857 8.37891 150.232 8.50781C150.607 8.63086 150.926 8.83008 151.19 9.10547C151.459 9.38086 151.664 9.73828 151.805 10.1777C151.946 10.6113 152.016 11.1416 152.016 11.7686V18H150.381V11.751C150.381 11.2529 150.308 10.8545 150.162 10.5557C150.015 10.251 149.801 10.0312 149.52 9.89648C149.239 9.75586 148.893 9.68555 148.483 9.68555C148.079 9.68555 147.709 9.77051 147.375 9.94043C147.047 10.1104 146.763 10.3447 146.523 10.6436C146.289 10.9424 146.104 11.2852 145.969 11.6719C145.84 12.0527 145.776 12.457 145.776 12.8848ZM160.58 16.1543V4.5H162.215V18H160.721L160.58 16.1543ZM154.181 13.3506V13.166C154.181 12.4395 154.269 11.7803 154.445 11.1885C154.627 10.5908 154.882 10.0781 155.21 9.65039C155.544 9.22266 155.939 8.89453 156.396 8.66602C156.859 8.43164 157.375 8.31445 157.943 8.31445C158.541 8.31445 159.062 8.41992 159.508 8.63086C159.959 8.83594 160.34 9.1377 160.65 9.53613C160.967 9.92871 161.216 10.4033 161.397 10.96C161.579 11.5166 161.705 12.1465 161.775 12.8496V13.6582C161.711 14.3555 161.585 14.9824 161.397 15.5391C161.216 16.0957 160.967 16.5703 160.65 16.9629C160.34 17.3555 159.959 17.6572 159.508 17.8682C159.056 18.0732 158.529 18.1758 157.926 18.1758C157.369 18.1758 156.859 18.0557 156.396 17.8154C155.939 17.5752 155.544 17.2383 155.21 16.8047C154.882 16.3711 154.627 15.8613 154.445 15.2754C154.269 14.6836 154.181 14.042 154.181 13.3506ZM155.816 13.166V13.3506C155.816 13.8252 155.863 14.2705 155.957 14.6865C156.056 15.1025 156.209 15.4688 156.414 15.7852C156.619 16.1016 156.88 16.3506 157.196 16.5322C157.513 16.708 157.89 16.7959 158.33 16.7959C158.869 16.7959 159.311 16.6816 159.657 16.4531C160.009 16.2246 160.29 15.9229 160.501 15.5479C160.712 15.1729 160.876 14.7656 160.993 14.3262V12.208C160.923 11.8857 160.82 11.5752 160.685 11.2764C160.556 10.9717 160.387 10.7021 160.176 10.4678C159.971 10.2275 159.716 10.0371 159.411 9.89648C159.112 9.75586 158.758 9.68555 158.348 9.68555C157.902 9.68555 157.518 9.7793 157.196 9.9668C156.88 10.1484 156.619 10.4004 156.414 10.7227C156.209 11.0391 156.056 11.4082 155.957 11.8301C155.863 12.2461 155.816 12.6914 155.816 13.166Z" fill="white"/>
<defs>
<clipPath id="clip0_209_52">
<rect width="76.5957" height="24" fill="white"/>
</clipPath>
</defs>
</svg>
