<svg width="77" height="24" viewBox="0 0 77 24" fill="none" xmlns="http://www.w3.org/2000/svg">
<g clip-path="url(#clip0_246_50)">
<path d="M9.58131 8.56364V11.1273H15.7681C15.6039 12.5455 15.1111 13.6364 14.3446 14.3455C13.4686 15.2182 12.0451 16.2 9.58131 16.2C5.80354 16.2 2.84702 13.1455 2.84702 9.38182C2.84702 5.61818 5.74879 2.56364 9.58131 2.56364C11.6071 2.56364 13.1401 3.38182 14.2351 4.41818L16.0419 2.61818C14.5088 1.14545 12.4283 0 9.58131 0C4.38003 0 0 4.2 0 9.38182C0 14.5636 4.38003 18.7636 9.58131 18.7636C12.3736 18.7636 14.5088 17.8364 16.1514 16.1455C17.8486 14.4545 18.3961 12.0545 18.3961 10.1455C18.3961 9.54546 18.3414 9 18.2866 8.56364H9.58131Z" fill="#5F6368"/>
<path d="M26.0612 6.43634C22.7214 6.43634 19.9291 8.99998 19.9291 12.4909C19.9291 15.9818 22.6667 18.5454 26.0612 18.5454C29.4557 18.5454 32.1932 16.0363 32.1932 12.5454C32.1932 8.99998 29.4557 6.43634 26.0612 6.43634ZM26.0612 16.2C24.1997 16.2 22.6119 14.6727 22.6119 12.5454C22.6119 10.3636 24.1997 8.89089 26.0612 8.89089C27.9227 8.89089 29.5104 10.3636 29.5104 12.5454C29.5104 14.6727 27.9227 16.2 26.0612 16.2Z" fill="#5F6368"/>
<path d="M56.0096 7.79998H55.9001C55.2979 7.09089 54.1481 6.43634 52.6698 6.43634C49.6038 6.43634 46.9758 9.05452 46.9758 12.4909C46.9758 15.8727 49.6038 18.5454 52.6698 18.5454C54.1481 18.5454 55.2979 17.8909 55.9001 17.1818H56.0096V18.0545C56.0096 20.3454 54.7503 21.6 52.7793 21.6C51.1368 21.6 50.1513 20.4545 49.7133 19.4182L47.4138 20.4C48.0708 21.9818 49.8776 24 52.8341 24C55.9549 24 58.6376 22.1454 58.6376 17.6727V6.76361H56.1191V7.79998H56.0096ZM52.9436 16.2C51.0821 16.2 49.7133 14.6182 49.7133 12.5454C49.7133 10.4182 51.1368 8.89089 52.9436 8.89089C54.7503 8.89089 56.1739 10.4727 56.1739 12.6C56.2286 14.6727 54.8051 16.2 52.9436 16.2Z" fill="#5F6368"/>
<path d="M39.694 6.43634C36.3542 6.43634 33.562 8.99998 33.562 12.4909C33.562 15.9818 36.2995 18.5454 39.694 18.5454C43.0885 18.5454 45.826 16.0363 45.826 12.5454C45.826 8.99998 43.0885 6.43634 39.694 6.43634ZM39.694 16.2C37.8325 16.2 36.2447 14.6727 36.2447 12.5454C36.2447 10.3636 37.8325 8.89089 39.694 8.89089C41.5555 8.89089 43.1433 10.3636 43.1433 12.5454C43.1433 14.6727 41.5555 16.2 39.694 16.2Z" fill="#5F6368"/>
<path d="M60.6634 0.272705H63.2914V18.6H60.6634V0.272705Z" fill="#5F6368"/>
<path d="M71.3945 16.2C70.0257 16.2 69.0949 15.6 68.4379 14.3454L76.5957 11.0182L76.322 10.3091C75.8292 8.94543 74.2415 6.43634 71.1207 6.43634C67.9999 6.43634 65.3719 8.89089 65.3719 12.4909C65.3719 15.8727 67.9452 18.5454 71.3945 18.5454C74.1867 18.5454 75.7745 16.8545 76.4862 15.8727L74.4057 14.5091C73.694 15.5454 72.7632 16.2 71.3945 16.2ZM71.2302 8.72725C72.3252 8.72725 73.256 9.2727 73.5297 10.0363L68.0547 12.3272C67.9999 9.81816 69.8614 8.72725 71.2302 8.72725Z" fill="#5F6368"/>
</g>
<defs>
<clipPath id="clip0_246_50">
<rect width="76.5957" height="24" fill="white"/>
</clipPath>
</defs>
</svg>
