<svg width="14" height="14" viewBox="0 0 14 14" fill="none" xmlns="http://www.w3.org/2000/svg">
<g clip-path="url(#clip0_241_23)">
<path d="M10.333 3.64398C10.2667 3.64398 10.2031 3.61764 10.1562 3.57076C10.1093 3.52387 10.083 3.46029 10.083 3.39398C10.083 3.32768 10.1093 3.26409 10.1562 3.21721C10.2031 3.17032 10.2667 3.14398 10.333 3.14398M10.333 3.64398C10.3993 3.64398 10.4629 3.61764 10.5098 3.57076C10.5567 3.52387 10.583 3.46029 10.583 3.39398C10.583 3.32768 10.5567 3.26409 10.5098 3.21721C10.4629 3.17032 10.3993 3.14398 10.333 3.14398" stroke="#202124" stroke-linecap="round" stroke-linejoin="round"/>
<path d="M0.857995 3.43097C0.857995 2.74857 1.12908 2.09412 1.61161 1.61159C2.09414 1.12905 2.74859 0.857971 3.43099 0.857971H10.293C10.6309 0.857971 10.9655 0.924524 11.2776 1.05383C11.5898 1.18313 11.8735 1.37266 12.1124 1.61159C12.3513 1.85051 12.5408 2.13416 12.6701 2.44633C12.7994 2.7585 12.866 3.09308 12.866 3.43097V10.293C12.866 10.9754 12.5949 11.6298 12.1124 12.1124C11.6298 12.5949 10.9754 12.866 10.293 12.866H3.42999C2.74759 12.866 2.09314 12.5949 1.61061 12.1124C1.12808 11.6298 0.856995 10.9754 0.856995 10.293V3.42997L0.857995 3.43097Z" stroke="#202124" stroke-linecap="round" stroke-linejoin="round"/>
<path d="M4.31198 6.86195C4.31198 7.19682 4.37794 7.52841 4.50609 7.83779C4.63424 8.14717 4.82207 8.42828 5.05886 8.66507C5.29565 8.90186 5.57676 9.08969 5.88614 9.21784C6.19552 9.34599 6.52711 9.41195 6.86198 9.41195C7.19685 9.41195 7.52844 9.34599 7.83782 9.21784C8.1472 9.08969 8.42831 8.90186 8.6651 8.66507C8.90189 8.42828 9.08972 8.14717 9.21787 7.83779C9.34602 7.52841 9.41198 7.19682 9.41198 6.86195C9.41198 6.18565 9.14332 5.53705 8.6651 5.05883C8.18689 4.58061 7.53828 4.31195 6.86198 4.31195C6.18568 4.31195 5.53708 4.58061 5.05886 5.05883C4.58064 5.53705 4.31198 6.18565 4.31198 6.86195Z" stroke="#202124" stroke-linecap="round" stroke-linejoin="round"/>
</g>
<defs>
<clipPath id="clip0_241_23">
<rect width="14" height="14" fill="white"/>
</clipPath>
</defs>
</svg>
